<svg width="18" height="18" viewBox="0 0 18 18" fill="none" xmlns="http://www.w3.org/2000/svg">
<path d="M14.25 2.2665C14.25 2.2605 14.25 2.256 14.25 2.25V0.75C14.25 0.551088 14.171 0.360322 14.0303 0.21967C13.8897 0.0790176 13.6989 0 13.5 0C13.3011 0 13.1103 0.0790176 12.9697 0.21967C12.829 0.360322 12.75 0.551088 12.75 0.75V1.575C12.5032 1.52487 12.2519 1.49975 12 1.5H11.25V0.75C11.25 0.551088 11.171 0.360322 11.0303 0.21967C10.8897 0.0790176 10.6989 0 10.5 0C10.3011 0 10.1103 0.0790176 9.96967 0.21967C9.82902 0.360322 9.75 0.551088 9.75 0.75V1.5H8.25V0.75C8.25 0.551088 8.17098 0.360322 8.03033 0.21967C7.88968 0.0790176 7.69891 0 7.5 0C7.30109 0 7.11032 0.0790176 6.96967 0.21967C6.82902 0.360322 6.75 0.551088 6.75 0.75V1.5H6C5.74812 1.49975 5.49685 1.52487 5.25 1.575V0.75C5.25 0.551088 5.17098 0.360322 5.03033 0.21967C4.88968 0.0790176 4.69891 0 4.5 0C4.30109 0 4.11032 0.0790176 3.96967 0.21967C3.82902 0.360322 3.75 0.551088 3.75 0.75V2.25V2.2665C3.28559 2.61328 2.90827 3.0634 2.64792 3.58124C2.38757 4.09907 2.25134 4.6704 2.25 5.25V14.25C2.25119 15.2442 2.64666 16.1973 3.34966 16.9003C4.05267 17.6033 5.0058 17.9988 6 18H12C12.9942 17.9988 13.9473 17.6033 14.6503 16.9003C15.3533 16.1973 15.7488 15.2442 15.75 14.25V5.25C15.7487 4.6704 15.6124 4.09907 15.3521 3.58124C15.0917 3.0634 14.7144 2.61328 14.25 2.2665ZM14.25 14.25C14.25 14.8467 14.0129 15.419 13.591 15.841C13.169 16.2629 12.5967 16.5 12 16.5H6C5.40326 16.5 4.83097 16.2629 4.40901 15.841C3.98705 15.419 3.75 14.8467 3.75 14.25V5.25C3.75 4.65326 3.98705 4.08097 4.40901 3.65901C4.83097 3.23705 5.40326 3 6 3H12C12.5967 3 13.169 3.23705 13.591 3.65901C14.0129 4.08097 14.25 4.65326 14.25 5.25V14.25ZM12.75 6C12.75 6.19891 12.671 6.38968 12.5303 6.53033C12.3897 6.67098 12.1989 6.75 12 6.75H6C5.80109 6.75 5.61032 6.67098 5.46967 6.53033C5.32902 6.38968 5.25 6.19891 5.25 6C5.25 5.80109 5.32902 5.61032 5.46967 5.46967C5.61032 5.32902 5.80109 5.25 6 5.25H12C12.1989 5.25 12.3897 5.32902 12.5303 5.46967C12.671 5.61032 12.75 5.80109 12.75 6ZM12.75 9C12.75 9.19891 12.671 9.38968 12.5303 9.53033C12.3897 9.67098 12.1989 9.75 12 9.75H6C5.80109 9.75 5.61032 9.67098 5.46967 9.53033C5.32902 9.38968 5.25 9.19891 5.25 9C5.25 8.80109 5.32902 8.61032 5.46967 8.46967C5.61032 8.32902 5.80109 8.25 6 8.25H12C12.1989 8.25 12.3897 8.32902 12.5303 8.46967C12.671 8.61032 12.75 8.80109 12.75 9ZM9.75 12C9.75 12.1989 9.67098 12.3897 9.53033 12.5303C9.38968 12.671 9.19891 12.75 9 12.75H6C5.80109 12.75 5.61032 12.671 5.46967 12.5303C5.32902 12.3897 5.25 12.1989 5.25 12C5.25 11.8011 5.32902 11.6103 5.46967 11.4697C5.61032 11.329 5.80109 11.25 6 11.25H9C9.19891 11.25 9.38968 11.329 9.53033 11.4697C9.67098 11.6103 9.75 11.8011 9.75 12Z" fill="#1E1E1E"/>
</svg>
